<svg xmlns="http://www.w3.org/2000/svg" width="43.901" height="35.988" viewBox="0 0 43.901 35.988">
  <g id="Group_564" data-name="Group 564" transform="translate(-1062.986 -274)">
    <path id="Path_562" data-name="Path 562" d="M250.841,530.136H229.058a4.423,4.423,0,0,1-4.423-4.422V503.93h26.206Z" transform="translate(841.94 -221.148)" fill="none" stroke="#2d56a3" stroke-miterlimit="10" stroke-width="2"/>
    <path id="Path_563" data-name="Path 563" d="M265.133,530.136H259.1V503.93h10.459v21.784A4.422,4.422,0,0,1,265.133,530.136Z" transform="translate(833.685 -221.148)" fill="none" stroke="#2d56a3" stroke-miterlimit="10" stroke-width="2"/>
    <path id="Path_564" data-name="Path 564" d="M250.03,501.479H223.824l-2.489-6.18a1.166,1.166,0,0,1,1.081-1.6h23.691a1.167,1.167,0,0,1,1.081.731Z" transform="translate(842.751 -218.697)" fill="none" stroke="#2d56a3" stroke-miterlimit="10" stroke-width="2"/>
    <path id="Path_565" data-name="Path 565" d="M269.555,501.479H259.1l2.91-7.059a1.167,1.167,0,0,1,1.078-.722h7.936a1.167,1.167,0,0,1,1.078,1.611Z" transform="translate(833.685 -218.697)" fill="none" stroke="#2d56a3" stroke-miterlimit="10" stroke-width="2"/>
  </g>
</svg>
