<svg xmlns="http://www.w3.org/2000/svg" width="46.71" height="36.187" viewBox="0 0 46.71 36.187">
  <g id="Group_563" data-name="Group 563" transform="translate(-955.9 -273.9)">
    <path id="Path_559" data-name="Path 559" d="M80.525,444.318H77.562a1.982,1.982,0,0,1-1.99-1.989V428.995a2.089,2.089,0,0,1,.575-1.415l8.093-8.093a1.991,1.991,0,0,1,1.415-.575h9.6v25.406H90.3" transform="translate(881.428 -140.22)" fill="none" stroke="#2d56a3" stroke-miterlimit="10" stroke-width="2.2"/>
    <path id="Path_560" data-name="Path 560" d="M87.654,433.091H92.2a.8.8,0,0,0,.8-.8v-4.548a.8.8,0,0,0-1.366-.566l-4.548,4.548A.8.8,0,0,0,87.654,433.091Z" transform="translate(875.098 -142.143)" fill="none" stroke="#2d56a3" stroke-miterlimit="10" stroke-width="2.2"/>
    <path id="Path_561" data-name="Path 561" d="M55.324,443.155h-12.4V418.479a4.421,4.421,0,0,1,4.423-4.422H63.328a4.421,4.421,0,0,1,4.422,4.422v20.254a4.429,4.429,0,0,1-2.675,4.068" transform="translate(933.76 -139.057)" fill="none" stroke="#2d56a3" stroke-miterlimit="10" stroke-width="2.2"/>
    <ellipse id="Ellipse_29" data-name="Ellipse 29" cx="4.886" cy="4.886" rx="4.886" ry="4.886" transform="translate(989.091 299.216)" fill="none" stroke="#2d56a3" stroke-miterlimit="10" stroke-width="2.2"/>
    <ellipse id="Ellipse_30" data-name="Ellipse 30" cx="4.886" cy="4.886" rx="4.886" ry="4.886" transform="translate(961.951 299.216)" fill="none" stroke="#2d56a3" stroke-miterlimit="10" stroke-width="2.2"/>
  </g>
</svg>
